<?xml version="1.0" encoding="UTF-8"?><svg xmlns="http://www.w3.org/2000/svg" xmlns:xlink="http://www.w3.org/1999/xlink" viewBox="0 0 100 100"><defs><style>.j{fill:url(#e);}.k{fill:url(#d);}.l{fill:url(#g);}.m{fill:url(#f);}.n{fill:url(#i);}.o{fill:url(#h);}.p{fill:url(#c);}.q{fill:url(#b);}.r,.s,.t{fill:none;}.r,.s,.t,.u{stroke-linecap:round;stroke-linejoin:round;}.r,.s,.u{stroke-width:3.77px;}.r,.u{stroke:#445641;}.s{stroke:#3b394f;}.t{stroke:#6b3434;stroke-width:4px;}.v{isolation:isolate;}.w{fill:#020202;opacity:.15;}.w,.x{mix-blend-mode:overlay;}.u{fill:#53894c;}.x{fill:#fff;opacity:.3;}</style><linearGradient id="b" x1="50" y1="95.16" x2="50" y2="75.15" gradientTransform="matrix(1, 0, 0, 1, 0, 0)" gradientUnits="userSpaceOnUse"><stop offset=".4" stop-color="#5e5787"/><stop offset="1" stop-color="#827da2"/></linearGradient><linearGradient id="c" x1="41.31" y1="80.01" x2="41.31" y2="59.99" xlink:href="#b"/><linearGradient id="d" x1="58.69" y1="80.01" x2="58.69" y2="59.99" xlink:href="#b"/><linearGradient id="e" x1="32.63" y1="64.85" x2="32.63" y2="44.84" xlink:href="#b"/><linearGradient id="f" y1="64.85" y2="44.84" xlink:href="#b"/><linearGradient id="g" x1="67.37" y1="64.85" x2="67.37" y2="44.84" xlink:href="#b"/><linearGradient id="h" x1="41.31" y1="49.7" x2="41.31" y2="29.69" xlink:href="#b"/><linearGradient id="i" x1="58.69" y1="49.7" x2="58.69" y2="29.69" xlink:href="#b"/></defs><g class="v"><g id="a"><g><g><circle class="q" cx="50" cy="85.16" r="10.01"/><path class="w" d="M56.98,80.01c.07,.47,.12,.95,.12,1.44,0,5.35-4.34,9.69-9.69,9.69-1.55,0-3-.37-4.3-1.02,1.52,2.43,4.21,4.04,7.29,4.04,4.75,0,8.61-3.85,8.61-8.61,0-2.11-.76-4.05-2.03-5.55Z"/><circle class="s" cx="50" cy="85.16" r="10.01"/><path class="x" d="M45.04,84.05c1.79-1.24,3.34-.84,4.51-1.75,2.14-1.67-.12-4.64-2.28-3.43-1.65,.92-3.05,2.35-3.71,4.14-.43,1.17,.47,1.75,1.48,1.04Z"/></g><g><g><circle class="p" cx="41.31" cy="70" r="10.01"/><path class="w" d="M48.29,64.85c.07,.47,.12,.95,.12,1.44,0,5.35-4.34,9.69-9.69,9.69-1.55,0-3-.37-4.3-1.02,1.52,2.43,4.21,4.04,7.29,4.04,4.75,0,8.61-3.85,8.61-8.61,0-2.11-.76-4.05-2.03-5.55Z"/><circle class="s" cx="41.31" cy="70" r="10.01"/><path class="x" d="M36.36,68.89c1.79-1.24,3.34-.84,4.51-1.75,2.14-1.67-.12-4.64-2.28-3.43-1.65,.92-3.05,2.35-3.71,4.14-.43,1.17,.47,1.75,1.48,1.04Z"/></g><g><circle class="k" cx="58.69" cy="70" r="10.01"/><path class="w" d="M65.66,64.85c.07,.47,.12,.95,.12,1.44,0,5.35-4.34,9.69-9.69,9.69-1.55,0-3-.37-4.3-1.02,1.52,2.43,4.21,4.04,7.29,4.04,4.75,0,8.61-3.85,8.61-8.61,0-2.11-.76-4.05-2.03-5.55Z"/><circle class="s" cx="58.69" cy="70" r="10.01"/><path class="x" d="M53.73,68.89c1.79-1.24,3.34-.84,4.51-1.75,2.14-1.67-.12-4.64-2.28-3.43-1.65,.92-3.05,2.35-3.71,4.14-.43,1.17,.47,1.75,1.48,1.04Z"/></g></g><g><g><circle class="j" cx="32.63" cy="54.85" r="10.01"/><path class="w" d="M39.61,49.7c.07,.47,.12,.95,.12,1.44,0,5.35-4.34,9.69-9.69,9.69-1.55,0-3-.37-4.3-1.02,1.52,2.43,4.21,4.04,7.29,4.04,4.75,0,8.61-3.85,8.61-8.61,0-2.11-.76-4.05-2.03-5.55Z"/><circle class="s" cx="32.63" cy="54.85" r="10.01"/><path class="x" d="M27.67,53.74c1.79-1.24,3.34-.84,4.51-1.75,2.14-1.67-.12-4.64-2.28-3.43-1.65,.92-3.05,2.35-3.71,4.14-.43,1.17,.47,1.75,1.48,1.04Z"/></g><g><circle class="m" cx="50" cy="54.85" r="10.01"/><path class="w" d="M56.98,49.7c.07,.47,.12,.95,.12,1.44,0,5.35-4.34,9.69-9.69,9.69-1.55,0-3-.37-4.3-1.02,1.52,2.43,4.21,4.04,7.29,4.04,4.75,0,8.61-3.85,8.61-8.61,0-2.11-.76-4.05-2.03-5.55Z"/><circle class="s" cx="50" cy="54.85" r="10.01"/><path class="x" d="M45.04,53.74c1.79-1.24,3.34-.84,4.51-1.75,2.14-1.67-.12-4.64-2.28-3.43-1.65,.92-3.05,2.35-3.71,4.14-.43,1.17,.47,1.75,1.48,1.04Z"/></g><g><circle class="l" cx="67.37" cy="54.85" r="10.01"/><path class="w" d="M74.35,49.7c.07,.47,.12,.95,.12,1.44,0,5.35-4.34,9.69-9.69,9.69-1.55,0-3-.37-4.3-1.02,1.52,2.43,4.21,4.04,7.29,4.04,4.75,0,8.61-3.85,8.61-8.61,0-2.11-.76-4.05-2.03-5.55Z"/><circle class="s" cx="67.37" cy="54.85" r="10.01"/><path class="x" d="M62.41,53.74c1.79-1.24,3.34-.84,4.51-1.75,2.14-1.67-.12-4.64-2.28-3.43-1.65,.92-3.05,2.35-3.71,4.14-.43,1.17,.47,1.75,1.48,1.04Z"/></g></g><g><path class="u" d="M49.29,19.94c.9-3.89,0-12.65-7.64-13.93l-.37,3.82c-4.42-2.25-11.9-1.2-15.12,5.32,4.04,3.37,7.41,4.04,10.48,3.97l-2.02,3.74c4.19,1.72,11.16,.67,14.67-2.92Z"/><path class="r" d="M37.93,13.9c6.81,1.16,11.7,5.11,12.76,10.72"/></g><path class="t" d="M60.9,12.23c-6.04,3.56-11.3,13.47-11.3,19.66"/><g><g><circle class="o" cx="41.31" cy="39.69" r="10.01"/><path class="w" d="M48.29,34.54c.07,.47,.12,.95,.12,1.44,0,5.35-4.34,9.69-9.69,9.69-1.55,0-3-.37-4.3-1.02,1.52,2.43,4.21,4.04,7.29,4.04,4.75,0,8.61-3.85,8.61-8.61,0-2.11-.76-4.05-2.03-5.55Z"/><circle class="s" cx="41.31" cy="39.69" r="10.01"/><path class="x" d="M36.36,38.59c1.79-1.24,3.34-.84,4.51-1.75,2.14-1.67-.12-4.64-2.28-3.43-1.65,.92-3.05,2.35-3.71,4.14-.43,1.17,.47,1.75,1.48,1.04Z"/></g><g><circle class="n" cx="58.69" cy="39.69" r="10.01"/><path class="w" d="M65.66,34.54c.07,.47,.12,.95,.12,1.44,0,5.35-4.34,9.69-9.69,9.69-1.55,0-3-.37-4.3-1.02,1.52,2.43,4.21,4.04,7.29,4.04,4.75,0,8.61-3.85,8.61-8.61,0-2.11-.76-4.05-2.03-5.55Z"/><circle class="s" cx="58.69" cy="39.69" r="10.01"/><path class="x" d="M53.73,38.59c1.79-1.24,3.34-.84,4.51-1.75,2.14-1.67-.12-4.64-2.28-3.43-1.65,.92-3.05,2.35-3.71,4.14-.43,1.17,.47,1.75,1.48,1.04Z"/></g></g></g></g></g></svg>