<?xml version="1.0" encoding="UTF-8"?><svg xmlns="http://www.w3.org/2000/svg" xmlns:xlink="http://www.w3.org/1999/xlink" viewBox="0 0 100 100"><defs><style>.c{fill:url(#b);}.d{stroke:#895551;}.d,.e{fill:none;}.d,.e,.f{stroke-linecap:round;stroke-linejoin:round;}.d,.f{stroke-width:3.77px;}.e{stroke:#724040;stroke-width:4px;}.g{isolation:isolate;}.h{fill:#fff;opacity:.6;}.h,.i{mix-blend-mode:overlay;}.i{fill:#020202;opacity:.2;}.f{fill:#a4c638;stroke:#5a5e2d;}</style><linearGradient id="b" x1="50" y1="89.82" x2="50" y2="27.43" gradientTransform="matrix(1, 0, 0, 1, 0, 0)" gradientUnits="userSpaceOnUse"><stop offset="0" stop-color="#f97580"/><stop offset="1" stop-color="#ffd8d2"/></linearGradient></defs><g class="g"><g id="a"><g><g><path class="e" d="M61.59,11.17c-5.05,2.98-9.46,11.27-9.46,16.46"/><path class="c" d="M80.31,44.62c-4.27-10.21-14.58-18.4-26.34-16.92-1.58,.2-3.06,.59-4.44,1.12l.03-.1s-6.63-2.79-13.58-.17c-18.88,7.14-23.38,30.79-13.76,47.07,5.42,9.17,16.04,13.91,26.4,14.18,11.24,.29,22.77-4.67,28.86-14.39,5.66-9.03,6.9-21.11,2.84-30.8Z"/><path class="i" d="M80.31,44.62c-.62-1.49-1.39-2.93-2.25-4.31,0,.34-.02,.68-.03,1.03,.49,2.36,.76,4.81,.76,7.32,0,19.61-15.9,35.51-35.51,35.51-6.94,0-13.4-2-18.87-5.43,5.8,7.13,15.09,10.85,24.2,11.08,11.24,.29,22.77-4.67,28.86-14.39,5.66-9.03,6.9-21.11,2.84-30.8Z"/><path class="d" d="M38.54,67.75c-7.92-11.14-2.94-37.74,15.42-40.05,11.76-1.48,22.07,6.71,26.34,16.92,4.06,9.7,2.82,21.77-2.84,30.8-6.09,9.72-17.62,14.68-28.86,14.39-10.36-.27-20.98-5.01-26.4-14.18-9.62-16.28-5.12-39.94,13.76-47.07,6.95-2.63,13.58,.17,13.58,.17"/><path class="f" d="M48.24,28.27c1.04-8.87-8.87-18.26-24.52-18.09,5.57,5.91-1.39,20.35,24.52,18.09Z"/></g><path class="h" d="M52.88,32.5c-8.12,2.14-11.77,10.32-12.54,15.45-.24,1.59,1.24,.66,3.31-2,3.23-4.16,7.46-9.16,18.38-9.24,.82,0,3.39,.32,4.8,.55,2.14,.35,3.4,.62,1.11-1.41-3.03-2.68-8.54-5.07-15.06-3.35Z"/></g></g></g></svg>